<svg id="effective" xmlns="http://www.w3.org/2000/svg" width="156.497" height="156.496" viewBox="0 0 156.497 156.496">
  <path id="Path_5" data-name="Path 5" d="M204.538,103.49h-8.9a12.494,12.494,0,0,0,2.589-7.572,5.053,5.053,0,0,0-5.048-5.048h-3.786v-6.3a42.91,42.91,0,1,0-20.193,0v6.3h-2.666a12.745,12.745,0,0,0-5.644,1.33l-15.927,7.967a7.594,7.594,0,0,1-3.387.8H128.814V95.917H96v5.048h17.669v17.669h5.048V100.966h5.048v40.386h-5.048V123.683h-5.048v17.669H96V146.4h32.814v-5.048h12.762a7.625,7.625,0,0,1,3.387.8l10.882,5.443a12.7,12.7,0,0,0,5.641,1.332H169.2V156.5h20.193v-7.572h15.145a7.54,7.54,0,0,0,5.6-12.621,7.458,7.458,0,0,0,0-10.1,7.458,7.458,0,0,0,0-10.1,7.54,7.54,0,0,0-5.6-12.621Zm2.524,7.572a2.527,2.527,0,0,1-2.524,2.524H186.869a2.524,2.524,0,0,1,0-5.048h17.669A2.527,2.527,0,0,1,207.062,111.062Zm0,10.1a2.527,2.527,0,0,1-2.524,2.524H186.869a2.524,2.524,0,0,1,0-5.048h17.669A2.527,2.527,0,0,1,207.062,121.159Zm0,10.1a2.527,2.527,0,0,1-2.524,2.524H186.869a2.524,2.524,0,0,1,0-5.048h17.669A2.527,2.527,0,0,1,207.062,131.255ZM141.434,42.91A37.862,37.862,0,1,1,179.3,80.772,37.905,37.905,0,0,1,141.434,42.91ZM174.248,85.5a39.624,39.624,0,0,0,10.1,0v5.371h-10.1Zm-12.762,58.378a7.625,7.625,0,0,1-3.387-.8l-10.882-5.443a12.7,12.7,0,0,0-5.641-1.332H128.814v-30.29h12.762a12.745,12.745,0,0,0,5.644-1.33l15.927-7.967a7.594,7.594,0,0,1,3.387-.8h26.645a7.582,7.582,0,0,1-7.572,7.572H170.373l-7.529,11.3a19.987,19.987,0,0,1-16.624,8.895h-4.786v5.048h4.786a25.032,25.032,0,0,0,20.824-11.144l2.156-3.235v29.524Zm12.762,7.572v-42.91h5.513a7.34,7.34,0,0,0,1.5,7.572,7.458,7.458,0,0,0,0,10.1,7.458,7.458,0,0,0,0,10.1,7.5,7.5,0,0,0,3.08,12.156v2.989Zm30.29-7.572H186.869a2.524,2.524,0,1,1,0-5.048h17.669a2.524,2.524,0,1,1,0,5.048Zm0,0" transform="translate(-65.71 0)" fill="#fff"/>
  <path id="Path_6" data-name="Path 6" d="M389.569,73.008l-2.448,4.412a17.692,17.692,0,0,1,9.112,15.463h5.048A22.737,22.737,0,0,0,389.569,73.008Zm0,0" transform="translate(-264.978 -49.973)" fill="#fff"/>
  <path id="Path_7" data-name="Path 7" d="M360,69.048a17.71,17.71,0,0,1,4.42.558l1.255-4.892A22.942,22.942,0,0,0,360,64Zm0,0" transform="translate(-246.414 -43.807)" fill="#fff"/>
  <path id="Path_8" data-name="Path 8" d="M314.051,37.048a27.749,27.749,0,0,1,21.193,45.682l3.852,3.264a32.8,32.8,0,0,0-46.225-46.222l3.261,3.849a27.772,27.772,0,0,1,17.919-6.573Zm0,0" transform="translate(-200.465 -21.904)" fill="#fff"/>
  <path id="Path_9" data-name="Path 9" d="M309.994,115.093l-3.261-3.849a27.75,27.75,0,0,1-39.112-39.109l-3.852-3.264a32.8,32.8,0,0,0,46.224,46.222Zm0,0" transform="translate(-175.228 -47.141)" fill="#fff"/>
  <path id="Path_10" data-name="Path 10" d="M60.149,74.166a19.912,19.912,0,0,0,4.475-1.855l3.082,1.542,6.144-6.146-1.542-3.082a20.083,20.083,0,0,0,1.857-4.475l3.269-1.087V50.375l-3.266-1.09a19.737,19.737,0,0,0-1.857-4.475l1.542-3.085-6.144-6.144-3.082,1.542a19.889,19.889,0,0,0-4.475-1.855L59.062,32H50.373l-1.087,3.269a19.913,19.913,0,0,0-4.475,1.855l-3.085-1.542-6.144,6.144,1.542,3.085a20.035,20.035,0,0,0-1.857,4.475L32,50.373V59.06l3.266,1.09a19.807,19.807,0,0,0,1.857,4.475l-1.542,3.082,6.144,6.146,3.082-1.542a19.888,19.888,0,0,0,4.475,1.855l1.09,3.269h8.689ZM56.267,69.85l-.845,2.536H54.014l-.845-2.536-1.437-.286a14.949,14.949,0,0,1-5.4-2.238l-1.22-.813-2.39,1.2-1-1,1.2-2.392L42.109,63.1a14.931,14.931,0,0,1-2.238-5.4l-.288-1.437-2.534-.845v-1.41l2.534-.843.288-1.437a14.957,14.957,0,0,1,2.238-5.4l.813-1.218-1.2-2.395,1-1,2.39,1.2,1.22-.813a14.975,14.975,0,0,1,5.4-2.238l1.437-.286.845-2.536h1.408l.845,2.536,1.437.286a14.949,14.949,0,0,1,5.4,2.238l1.22.813,2.39-1.2,1,1-1.2,2.395.813,1.218a14.9,14.9,0,0,1,2.238,5.4l.288,1.437,2.534.845v1.41l-2.534.843L69.564,57.7a14.993,14.993,0,0,1-2.238,5.4l-.813,1.218,1.2,2.392-1,1-2.39-1.2-1.22.813a14.975,14.975,0,0,1-5.4,2.238Zm0,0" transform="translate(-21.903 -21.904)" fill="#fff"/>
  <path id="Path_11" data-name="Path 11" d="M82.1,72a10.1,10.1,0,1,0,10.1,10.1A10.107,10.107,0,0,0,82.1,72Zm0,15.145A5.048,5.048,0,1,1,87.145,82.1,5.053,5.053,0,0,1,82.1,87.145Zm0,0" transform="translate(-49.283 -49.283)" fill="#fff"/>
  <path id="Path_12" data-name="Path 12" d="M50.483,78.248V65.628H65.628V0H0V65.628H33.654ZM5.048,5.048H60.579V60.579H45.434v7.572l-10.1-7.572H5.048Zm0,0" fill="#fff"/>
  <path id="Path_13" data-name="Path 13" d="M0,272H5.048v5.048H0Zm0,0" transform="translate(0 -186.179)" fill="#fff"/>
  <path id="Path_14" data-name="Path 14" d="M32,272h5.048v5.048H32Zm0,0" transform="translate(-21.903 -186.179)" fill="#fff"/>
  <path id="Path_15" data-name="Path 15" d="M64,272h5.048v5.048H64Zm0,0" transform="translate(-43.807 -186.179)" fill="#fff"/>
  <path id="Path_16" data-name="Path 16" d="M32,304h5.048v5.048H32Zm0,0" transform="translate(-21.903 -208.083)" fill="#fff"/>
  <path id="Path_17" data-name="Path 17" d="M64,304h5.048v5.048H64Zm0,0" transform="translate(-43.807 -208.083)" fill="#fff"/>
  <path id="Path_18" data-name="Path 18" d="M0,480H5.048v5.048H0Zm0,0" transform="translate(0 -328.552)" fill="#fff"/>
  <path id="Path_19" data-name="Path 19" d="M32,480h5.048v5.048H32Zm0,0" transform="translate(-21.903 -328.552)" fill="#fff"/>
  <path id="Path_20" data-name="Path 20" d="M64,480h5.048v5.048H64Zm0,0" transform="translate(-43.807 -328.552)" fill="#fff"/>
  <path id="Path_21" data-name="Path 21" d="M32,448h5.048v5.048H32Zm0,0" transform="translate(-21.903 -306.648)" fill="#fff"/>
  <path id="Path_22" data-name="Path 22" d="M64,448h5.048v5.048H64Zm0,0" transform="translate(-43.807 -306.648)" fill="#fff"/>
</svg>
