<svg xmlns="http://www.w3.org/2000/svg" width="156.497" height="156.452" viewBox="0 0 156.497 156.452">
  <g id="project-management" transform="translate(0 -0.067)">
    <g id="Group_2" data-name="Group 2" transform="translate(0 0.713)">
      <g id="Group_1" data-name="Group 1">
        <path id="Path_2" data-name="Path 2" d="M154.268,42.484h0l-.005-.005-10.1-1.441a2.6,2.6,0,0,1-1.192-4.648l8.164-6.123a2.6,2.6,0,0,0,.519-3.635L142.3,14.166a2.6,2.6,0,0,0-3.635-.519l-8.162,6.123a2.6,2.6,0,0,1-4.139-2.444l1.444-10.1a2.6,2.6,0,0,0-2.2-2.939h0l-15.414-2.2a2.6,2.6,0,0,0-2.94,2.2h0l-1.444,10.1a2.6,2.6,0,0,1-4.648,1.192L95.041,7.415A2.6,2.6,0,0,0,91.406,6.9l-7.8,5.856a50.243,50.243,0,0,0-10.621,0,49.338,49.338,0,0,0-43.5,44.241c-.07.735-.1,1.465-.132,2.194h-.779a2.6,2.6,0,0,0-2.54,2.077L24.233,69.8l-7.188-4.957a2.6,2.6,0,0,0-3.311.3l-7.79,7.79a2.6,2.6,0,0,0-.3,3.308l4.934,7.175L2.041,85.208A2.6,2.6,0,0,0,0,87.75V98.137a2.6,2.6,0,0,0,2.062,2.542l8.536,1.794-4.934,7.175a2.6,2.6,0,0,0,.3,3.308l7.79,7.79a2.6,2.6,0,0,0,3.311.3l7.175-4.947,1.794,8.536a2.6,2.6,0,0,0,2.54,2.077H38.962a2.6,2.6,0,0,0,2.542-2.062l1.794-8.536,7.175,4.934a2.6,2.6,0,0,0,3.308-.3l4.033-4.046v7.4a10.353,10.353,0,0,0,5.194,8.943v14.428a10.387,10.387,0,0,0,10.387,10.387H83.782a10.387,10.387,0,0,0,10.387-10.387V133.048a10.353,10.353,0,0,0,5.194-8.943V113.827a12.724,12.724,0,0,1,6.006-10.6,49.833,49.833,0,0,0,6.113-4.674l-3.464-3.869a44.207,44.207,0,0,1-5.471,4.183,17.886,17.886,0,0,0-8.377,14.96V124.1a5.193,5.193,0,0,1-5.193,5.194H68.2a5.193,5.193,0,0,1-5.194-5.194V113.611a17.471,17.471,0,0,0-8.237-14.656A44.012,44.012,0,0,1,78.03,17.677a2.819,2.819,0,0,0-.1.283,2.6,2.6,0,0,0,.5,1.924l6.121,8.162a2.542,2.542,0,0,1,.156,2.882,2.581,2.581,0,0,1-2.6,1.249L72,30.733a2.6,2.6,0,0,0-2.939,2.2v0l-2.2,15.422a2.6,2.6,0,0,0,2.2,2.939h0l10.1,1.444a2.6,2.6,0,0,1,1.192,4.648l-8.162,6.121a2.6,2.6,0,0,0-.519,3.635l9.348,12.464a2.6,2.6,0,0,0,3.635.519l8.164-6.121a2.6,2.6,0,0,1,4.126,2.444l-1.441,10.1a2.6,2.6,0,0,0,2.2,2.94h0l15.425,2.2a2.876,2.876,0,0,0,.366.023,2.6,2.6,0,0,0,2.573-2.228l1.441-10.1a2.6,2.6,0,0,1,4.648-1.192l6.123,8.162a2.6,2.6,0,0,0,3.635.519l12.464-9.348a2.6,2.6,0,0,0,.519-3.635l-6.121-8.162a2.552,2.552,0,0,1-.156-2.882,2.521,2.521,0,0,1,2.6-1.246l10.1,1.441a2.6,2.6,0,0,0,2.94-2.2h0l2.2-15.425A2.6,2.6,0,0,0,154.268,42.484ZM68.2,134.492H88.975v5.194H68.2Zm0,10.387H88.975v2.6a5.193,5.193,0,0,1-5.194,5.193H73.395a5.193,5.193,0,0,1-5.194-5.193ZM47.528,100.1a49.079,49.079,0,0,0,4.438,3.233,12.675,12.675,0,0,1,5.232,6.645l-5.57,5.56-5.393-3.719a5.193,5.193,0,0,0-8.029,3.207l-1.361,6.484H30.673l-1.361-6.474a5.194,5.194,0,0,0-8.029-3.207l-5.4,3.708-4.731-4.721,3.716-5.391a5.194,5.194,0,0,0-3.2-8.032L5.193,96.029v-6.17L11.667,88.5a5.194,5.194,0,0,0,3.207-8.016l-3.719-5.406,4.731-4.721,5.4,3.719a5.193,5.193,0,0,0,8.027-3.21l.454-2.16a49.451,49.451,0,0,0,2.059,8.806,15.581,15.581,0,1,0,15.7,22.592ZM43.5,96.439a10.372,10.372,0,1,1-9.738-13.882h.1A49.18,49.18,0,0,0,43.5,96.439Zm105.984-38.9-7.531-1.075a7.79,7.79,0,0,0-7.333,12.387l4.562,6.084-8.31,6.232L126.3,75.081a7.79,7.79,0,0,0-13.945,3.571l-1.052,7.541-10.281-1.47,1.075-7.531a7.79,7.79,0,0,0-12.386-7.336l-6.084,4.562L77.4,66.109l6.082-4.565A7.79,7.79,0,0,0,79.91,47.6l-7.531-1.075,1.47-10.281,7.531,1.075a7.79,7.79,0,0,0,7.336-12.387l-4.578-6.089,8.31-6.232,4.565,6.084a7.79,7.79,0,0,0,13.945-3.571l1.075-7.531,10.281,1.467-1.075,7.531a7.79,7.79,0,0,0,12.387,7.333l6.084-4.562,6.232,8.31-6.084,4.565a7.79,7.79,0,0,0,3.571,13.945l7.531,1.075Z" transform="translate(0 -2.057)" fill="#fff"/>
      </g>
    </g>
    <g id="Group_4" data-name="Group 4" transform="translate(90.886 24.77)">
      <g id="Group_3" data-name="Group 3">
        <path id="Path_3" data-name="Path 3" d="M300.774,76.171a20.774,20.774,0,1,0,20.774,20.774A20.774,20.774,0,0,0,300.774,76.171Zm0,36.355a15.581,15.581,0,1,1,15.581-15.581A15.58,15.58,0,0,1,300.774,112.526Z" transform="translate(-280 -76.171)" fill="#fff"/>
      </g>
    </g>
    <g id="Group_6" data-name="Group 6" transform="translate(75.991 114.97)">
      <g id="Group_5" data-name="Group 5">
        <rect id="Rectangle_9" data-name="Rectangle 9" width="5.194" height="7.79" fill="#fff"/>
      </g>
    </g>
    <g id="Group_8" data-name="Group 8" transform="translate(42.212 29.678)">
      <g id="Group_7" data-name="Group 7">
        <path id="Path_4" data-name="Path 4" d="M155.063,151.081a31.161,31.161,0,0,1-5.261-55.4l-2.776-4.394a36.355,36.355,0,0,0,6.152,64.623,16.578,16.578,0,0,1,10.647,15.477h5.194A21.727,21.727,0,0,0,155.063,151.081Z" transform="translate(-130.044 -91.291)" fill="#fff"/>
      </g>
    </g>
    <g id="Group_10" data-name="Group 10" transform="translate(127.926 96.793)">
      <g id="Group_9" data-name="Group 9">
        <rect id="Rectangle_10" data-name="Rectangle 10" width="18.177" height="5.194" fill="#fff"/>
      </g>
    </g>
    <g id="Group_12" data-name="Group 12" transform="translate(123.668 110.377)">
      <g id="Group_11" data-name="Group 11" transform="translate(0 0)">
        <rect id="Rectangle_11" data-name="Rectangle 11" width="5.194" height="20.281" transform="matrix(0.64, -0.768, 0.768, 0.64, 0, 3.99)" fill="#fff"/>
      </g>
    </g>
    <g id="Group_14" data-name="Group 14" transform="translate(112.346 117.567)">
      <g id="Group_13" data-name="Group 13">
        <rect id="Rectangle_12" data-name="Rectangle 12" width="5.194" height="18.177" fill="#fff"/>
      </g>
    </g>
    <g id="Group_16" data-name="Group 16" transform="translate(2.652 39.741)">
      <g id="Group_15" data-name="Group 15" transform="translate(0 0)">
        <rect id="Rectangle_13" data-name="Rectangle 13" width="21.413" height="5.191" transform="translate(0 5.193) rotate(-14.035)" fill="#fff"/>
      </g>
    </g>
    <g id="Group_18" data-name="Group 18" transform="translate(6.965 14.184)">
      <g id="Group_17" data-name="Group 17" transform="translate(0 0)">
        <rect id="Rectangle_14" data-name="Rectangle 14" width="5.191" height="22.337" transform="matrix(0.581, -0.814, 0.814, 0.581, 0, 4.224)" fill="#fff"/>
      </g>
    </g>
    <g id="Group_20" data-name="Group 20" transform="translate(29.214 0.067)">
      <g id="Group_19" data-name="Group 19">
        <rect id="Rectangle_15" data-name="Rectangle 15" width="5.194" height="21.441" transform="matrix(0.969, -0.248, 0.248, 0.969, 0, 1.286)" fill="#fff"/>
      </g>
    </g>
  </g>
</svg>
